<svg width="137" height="137" fill="none" xmlns="http://www.w3.org/2000/svg"><path d="M94.951 49.324c0 16.691 41.353 82.093-26.365 82.093S42.221 66.015 42.221 49.324c0-16.691 1.09-30.248 26.365-30.248s26.365 13.557 26.365 30.248z" fill="#fff"/><path d="M68.586 131.894c-16.963 0-28.545-4.156-34.472-12.399-10.015-13.898-2.385-36.584 3.134-53.14 2.384-7.153 4.496-13.352 4.496-17.031 0-17.985 1.908-30.725 26.842-30.725 24.935 0 26.91 12.74 26.91 30.725 0 3.679 2.044 9.878 4.497 17.032 5.518 16.555 13.148 39.241 3.134 53.139-5.996 8.243-17.577 12.399-34.54 12.399zm0-112.342c-24.117 0-25.888 11.787-25.888 29.772 0 3.815-2.112 10.083-4.565 17.372-5.45 16.35-12.944 38.765-3.27 52.254 5.791 7.971 17.1 11.99 33.723 11.99 16.623 0 27.932-4.019 33.723-11.99 9.742-13.489 2.18-35.903-3.27-52.254-2.453-7.29-4.565-13.557-4.565-17.372 0-17.985-1.77-29.703-25.888-29.771z" fill="#231F20"/><path d="M121.588 110.434c-11.24 14.102-27.591 23.163-45.508 25.139a68.278 68.278 0 01-14.92 0c-17.918-1.976-34.336-11.037-45.51-25.139 8.176-5.655 18.804-11.65 30.863-15.192a74.372 74.372 0 0144.282 0c11.99 3.61 22.618 9.537 30.793 15.192z" fill="#019973"/><path d="M56.323 92.448c0-.068-14.102 3.066-13.898 4.088.204 1.022 15.67 31.202 16.555 31.202.886 0 9.606-5.314 9.606-5.314L56.323 92.448z" fill="#fff"/><path d="M58.98 128.215c-.409 0-.886 0-8.993-15.533-3.27-6.268-7.903-15.397-8.107-16.078-.068-.272.068-.545.34-.75 1.023-.817 13.626-4.223 14.308-3.882.136.068.204.136.204.272l12.263 29.976a.55.55 0 01-.205.613c-2.589 1.635-8.924 5.382-9.81 5.382zm-16.01-31.61c1.227 2.929 14.307 28.408 16.146 30.588.954-.34 5.042-2.657 8.857-4.973l-11.99-29.227C53.87 93.47 44.4 95.72 42.97 96.605z" fill="#231F20"/><path d="M80.508 92.448c0-.068 14.102 3.066 13.898 4.088-.205 1.022-15.67 31.202-16.555 31.202-.886 0-9.606-5.314-9.606-5.314l12.263-29.976z" fill="#fff"/><path d="M77.851 128.215c-.954 0-7.221-3.747-9.878-5.382-.205-.136-.273-.409-.205-.613l12.263-29.976c.068-.136.136-.204.204-.272.682-.341 13.217 3.065 14.307 3.883.273.136.34.409.34.75-.135.68-4.768 9.809-8.106 16.077-8.04 15.533-8.516 15.533-8.925 15.533zm-8.993-5.995c3.747 2.316 7.835 4.633 8.857 4.973 1.84-2.18 14.92-27.66 16.146-30.589-1.43-.885-10.9-3.134-13.012-3.61l-11.99 29.226z" fill="#231F20"/><path d="M82.688 99.942l-14.102 22.482-14.852-22.482c6.949-2.043 22.005-2.043 28.954 0z" fill="#231F20"/><path d="M85.209 59.748c1.294-8.04 14.647-10.015 13.966-.546-.204 3.27-1.294 6.609-3.543 8.925-2.248 2.316-5.995 3.406-8.992 2.112" fill="#fff"/><path d="M89.5 71.26a7.614 7.614 0 01-2.997-.612.504.504 0 01-.272-.613c.136-.273.409-.341.613-.273 2.657 1.158 6.131.34 8.448-1.976 2.52-2.588 3.27-6.063 3.406-8.584.204-3.27-1.362-5.45-4.292-5.79-3.543-.41-8.039 2.112-8.72 6.404-.068.272-.273.476-.545.408-.273-.068-.477-.272-.409-.545.75-4.837 5.79-7.698 9.81-7.221 2.725.272 5.45 2.248 5.178 6.813-.204 2.657-.954 6.472-3.679 9.197-1.771 1.703-4.088 2.725-6.54 2.793z" fill="#231F20"/><path d="M51.895 59.748c-1.295-8.04-14.648-10.015-13.967-.546.205 3.27 1.295 6.609 3.543 8.925 2.248 2.316 5.995 3.406 8.993 2.112" fill="#fff"/><path d="M47.67 71.26c-2.452-.067-4.836-1.09-6.54-2.792-2.725-2.794-3.542-6.54-3.678-9.197-.341-4.565 2.452-6.54 5.177-6.813 4.02-.477 9.061 2.384 9.81 7.221.069.273-.136.545-.408.545-.273.069-.545-.136-.545-.408-.681-4.292-5.178-6.813-8.72-6.404-2.93.34-4.497 2.52-4.292 5.79.204 2.521.885 6.064 3.406 8.584 2.316 2.385 5.79 3.202 8.448 1.976.272-.136.545 0 .68.273.137.272 0 .545-.272.68-1.021.341-2.043.546-3.065.546z" fill="#231F20"/><path d="M53.734 99.942s3.61 7.903 14.17 7.903c8.448 0 14.852-7.903 14.852-7.903l-1.43-30.93H55.164l-1.431 30.93z" fill="#fff"/><path d="M67.904 108.322c-10.764 0-14.579-8.107-14.647-8.175 0-.068-.068-.136-.068-.205l1.43-30.93c0-.272.205-.476.477-.476h26.161c.273 0 .477.204.477.477l1.43 30.93c0 .136 0 .272-.135.34-.205.341-6.609 8.039-15.125 8.039zm-13.693-8.448c.477.954 4.087 7.494 13.693 7.494 7.494 0 13.421-6.54 14.307-7.562L80.85 69.558H55.573l-1.362 30.316z" fill="#231F20"/><path d="M55.097 82.23c1.84 2.929 4.837 5.245 7.903 6.948 5.177 2.862 12.944 6.064 19.211 5.11l-1.022-13.08c-4.632.544-9.265.613-13.897.068-4.088-.341-8.244-.75-11.99-2.317-.546-.204-1.023 2.044-.205 3.27z" fill="#231F20"/><path d="M79.827 94.97c-6.336 0-13.217-3.27-17.032-5.383-3.815-2.112-6.472-4.428-8.107-7.085-.75-1.158-.613-2.998-.068-3.679.204-.272.613-.34.885-.204 3.747 1.567 8.04 1.975 11.854 2.248 4.565.545 9.198.477 13.762-.068.136 0 .273 0 .34.068.137.068.137.204.205.34l1.022 13.08c0 .273-.136.478-.409.478-.75.136-1.567.204-2.452.204zM55.3 79.503c-.273.818-.205 1.703.204 2.521 1.567 2.52 4.156 4.769 7.767 6.745 4.155 2.316 11.922 5.927 18.462 5.11l-.954-12.127a63.769 63.769 0 01-13.489 0c-3.815-.273-8.107-.682-11.99-2.249zm13.559-13.42c-.886 0-1.772-.068-2.657-.136a1.338 1.338 0 01-.886-.613c-1.363-2.248 2.248-11.922 2.998-13.898.068-.273.408-.409.613-.273.272.069.408.41.272.614-1.635 4.292-3.883 11.581-3.065 13.012 0 .068.068.136.136.136a22.56 22.56 0 005.246 0c.272-.068.477.136.545.409.068.272-.137.545-.41.545-.885.136-1.839.204-2.792.204z" fill="#231F20"/><path d="M88.138 44.623V65.88a18.434 18.434 0 01-18.462 18.46h-2.18a18.434 18.434 0 01-18.463-18.46V45.713l11.582-.953 1.362-9.198 2.93 10.424 8.243-1.09c.818-3.68 0-11.65-.136-11.99l5.927 11.172 9.197.545z" fill="#fff"/><path d="M69.676 84.818h-2.18a18.899 18.899 0 01-18.94-18.94V45.714c0-.272.205-.477.477-.477l11.242-.953 1.294-8.857c0-.204.204-.409.477-.409.204 0 .477.137.477.341l2.793 10.015 7.494-.954c.681-3.679-.136-11.037-.204-11.445-.069-.273.068-.477.34-.545a.55.55 0 01.613.204l5.791 10.9 8.857.613c.272 0 .477.205.477.477V65.88c-.069 10.423-8.516 18.94-19.008 18.94zM49.51 46.19v19.69c0 9.946 8.04 17.917 17.986 17.985h2.18c9.879 0 17.917-8.039 17.986-17.985V45.1l-8.653-.613a.46.46 0 01-.408-.273l-4.77-8.924c.205 2.793.41 7.153-.136 9.674a.614.614 0 01-.408.409l-8.244 1.09c-.272.068-.477-.137-.545-.341l-2.316-8.175-1.022 6.88c0 .205-.204.41-.477.41l-11.173.953z" fill="#231F20"/><path d="M68.586 136.39C30.912 136.39.39 105.869.39 68.195.39 30.521 30.91 0 68.586 0c37.674 0 68.195 30.52 68.195 68.195 0 15.465-5.246 30.385-14.852 42.511-12.944 16.283-32.564 25.753-53.343 25.684zm0-135.504c-37.13.068-67.242 30.18-67.31 67.31 0 37.197 30.112 67.309 67.31 67.309 37.197 0 67.309-30.112 67.309-67.31-.068-37.13-30.18-67.241-67.31-67.31z" fill="#231F20"/><path d="M100.742 128.215c-.341 0-.545-.272-.477-.545l2.316-17.645c.068-.272.273-.477.545-.409.273.069.477.273.409.545l-2.316 17.645c-.068.205-.273.409-.477.409zm-64.312 0c-.273 0-.477-.204-.477-.409l-2.316-17.645c0-.272.204-.476.477-.545.272 0 .477.137.477.409l2.316 17.645c.068.273-.136.545-.409.545h-.068z" fill="#231F20"/></svg>