<svg width="137" height="137" viewBox="0 0 137 137" fill="none" xmlns="http://www.w3.org/2000/svg">
<path d="M94.9512 49.324C94.9512 66.0151 136.304 131.417 68.586 131.417C0.867681 131.417 42.2208 66.0151 42.2208 49.324C42.2208 32.6328 43.3108 19.0756 68.586 19.0756C93.8611 19.0756 94.9512 32.6328 94.9512 49.324Z" fill="white"/>
<path d="M68.5861 131.894C51.6225 131.894 40.0409 127.738 34.1138 119.495C24.0991 105.597 31.7294 82.9106 37.2477 66.3558C39.6321 59.2024 41.7441 53.0029 41.7441 49.324C41.7441 31.3385 43.6516 18.5987 68.5861 18.5987C93.5206 18.5987 95.4963 31.3385 95.4963 49.324C95.4963 53.0029 97.5401 59.2024 99.9927 66.3558C105.511 82.9106 113.141 105.597 103.127 119.495C97.1314 127.738 85.5498 131.894 68.5861 131.894ZM68.5861 19.5525C44.4691 19.5525 42.6978 31.3385 42.6978 49.324C42.6978 53.1391 40.5859 59.4068 38.1333 66.6964C32.6831 83.0469 25.1892 105.461 34.8632 118.95C40.654 126.921 51.9631 130.94 68.5861 130.94C85.2091 130.94 96.5182 126.921 102.309 118.95C112.051 105.461 104.489 83.0469 99.0389 66.6964C96.5864 59.4068 94.4744 53.1391 94.4744 49.324C94.4744 31.3385 92.7031 19.6206 68.5861 19.5525Z" fill="#231F20"/>
<path d="M121.588 110.434C110.348 124.536 93.997 133.597 76.0796 135.573C71.1063 136.118 66.1331 136.118 61.1598 135.573C43.2424 133.597 26.8237 124.536 15.6509 110.434C23.8261 104.779 34.454 98.7842 46.5125 95.2416C60.9554 90.7452 76.3521 90.7452 90.7951 95.2416C102.785 98.8523 113.413 104.779 121.588 110.434Z" fill="#019973"/>
<path d="M56.323 92.4484C56.323 92.3803 42.2207 95.5141 42.4251 96.536C42.6294 97.558 58.0943 127.738 58.9799 127.738C59.8656 127.738 68.5858 122.424 68.5858 122.424L56.323 92.4484Z" fill="white"/>
<path d="M58.9801 128.215C58.5713 128.215 58.0944 128.215 49.9873 112.682C46.7172 106.414 42.0845 97.2855 41.8802 96.6042C41.812 96.3317 41.9483 96.0592 42.2208 95.8548C43.2427 95.0373 55.8462 91.6309 56.5275 91.9716C56.6637 92.0397 56.7319 92.1078 56.7319 92.2441L68.9947 122.22C69.0629 122.424 68.9947 122.697 68.7903 122.833C66.2015 124.468 59.8657 128.215 58.9801 128.215ZM42.9702 96.6042C44.1965 99.5337 57.2769 125.013 59.1163 127.193C60.0701 126.853 64.1577 124.536 67.9728 122.22L55.9825 92.9935C53.8705 93.4703 44.4009 95.7185 42.9702 96.6042Z" fill="#231F20"/>
<path d="M80.508 92.4484C80.508 92.3803 94.6103 95.5141 94.4059 96.536C94.2015 97.558 78.7367 127.738 77.851 127.738C76.9654 127.738 68.2451 122.424 68.2451 122.424L80.508 92.4484Z" fill="white"/>
<path d="M77.851 128.215C76.8973 128.215 70.6296 124.468 67.9726 122.833C67.7682 122.697 67.7001 122.424 67.7682 122.22L80.0311 92.2441C80.0992 92.1078 80.1674 92.0397 80.2355 91.9716C80.9168 91.6309 93.4521 95.0373 94.5422 95.8548C94.8147 95.991 94.8828 96.2636 94.8828 96.6042C94.7466 97.2855 90.1139 106.414 86.7757 112.682C78.7367 128.215 78.2598 128.215 77.851 128.215ZM68.8583 122.22C72.6052 124.536 76.6929 126.853 77.7148 127.193C79.5542 125.013 92.6346 99.5337 93.8609 96.6042C92.4302 95.7185 82.9606 93.4703 80.8486 92.9935L68.8583 122.22Z" fill="#231F20"/>
<path d="M82.6879 99.9424L68.5856 122.424L53.7339 99.9424C60.6828 97.8986 75.7389 97.8986 82.6879 99.9424Z" fill="#231F20"/>
<path d="M85.209 59.7475C86.5034 51.7085 99.8563 49.7328 99.175 59.2024C98.9707 62.4725 97.8806 65.8108 95.6324 68.1271C93.3842 70.4434 89.6372 71.5334 86.6397 70.239" fill="white"/>
<path d="M89.5008 71.2609C88.4789 71.2609 87.457 71.0565 86.5032 70.6478C86.2307 70.5115 86.1626 70.239 86.2307 70.0346C86.367 69.7621 86.6395 69.694 86.8439 69.7621C89.5008 70.9203 92.9753 70.1028 95.2917 67.7864C97.8124 65.1976 98.5618 61.7231 98.698 59.2024C98.9024 55.9323 97.3355 53.7523 94.406 53.4116C90.8634 53.0029 86.367 55.5236 85.6857 59.8156C85.6176 60.0881 85.4132 60.2925 85.1407 60.2243C84.8682 60.1562 84.6638 59.9518 84.732 59.6793C85.4814 54.8423 90.5228 51.981 94.5422 52.4579C97.2673 52.7304 99.9924 54.706 99.7199 59.2706C99.5155 61.9275 98.7661 65.7426 96.041 68.4677C94.2697 70.1709 91.9534 71.1928 89.5008 71.2609Z" fill="#231F20"/>
<path d="M51.8946 59.7475C50.6001 51.7085 37.2472 49.7328 37.9285 59.2024C38.1329 62.4725 39.2229 65.8108 41.4711 68.1271C43.7193 70.4434 47.4663 71.5334 50.4639 70.239" fill="white"/>
<path d="M47.6707 71.2609C45.2181 71.1928 42.8337 70.1709 41.1305 68.4677C38.4054 65.6745 37.5879 61.9275 37.4516 59.2706C37.111 54.706 39.9042 52.7304 42.6293 52.4579C46.6488 51.981 51.6902 54.8423 52.4396 59.6793C52.5077 59.9518 52.3034 60.2243 52.0309 60.2243C51.7583 60.2925 51.4858 60.0881 51.4858 59.8156C50.8046 55.5236 46.3082 53.0029 42.7656 53.4116C39.8361 53.7523 38.2692 55.9323 38.4736 59.2024C38.6779 61.7231 39.3592 65.2657 41.8799 67.7864C44.1962 70.1709 47.6707 70.9884 50.3277 69.7621C50.6002 69.6259 50.8727 69.7621 51.0089 70.0346C51.1452 70.3071 51.0089 70.5797 50.7364 70.7159C49.7145 71.0565 48.6926 71.2609 47.6707 71.2609Z" fill="#231F20"/>
<path d="M53.7339 99.9424C53.7339 99.9424 57.3446 107.845 67.9043 107.845C76.3521 107.845 82.756 99.9424 82.756 99.9424L81.3254 69.0127H55.1645L53.7339 99.9424Z" fill="white"/>
<path d="M67.9044 108.322C57.1403 108.322 53.3252 100.215 53.2571 100.147C53.2571 100.079 53.189 100.011 53.189 99.9424L54.6196 69.0127C54.6196 68.7402 54.824 68.5358 55.0965 68.5358H81.2573C81.5298 68.5358 81.7342 68.7402 81.7342 69.0127L83.1649 99.9424C83.1649 100.079 83.1649 100.215 83.0286 100.283C82.8243 100.624 76.4203 108.322 67.9044 108.322ZM54.2109 99.8743C54.6878 100.828 58.2985 107.368 67.9044 107.368C75.3984 107.368 81.3254 100.828 82.2111 99.8062L80.8486 69.5577H55.5734L54.2109 99.8743Z" fill="#231F20"/>
<path d="M55.0968 82.2294C56.9363 85.1588 59.9338 87.4751 62.9996 89.1783C68.1772 92.0397 75.9437 95.2416 82.2114 94.2879L81.1895 81.2075C76.5569 81.7525 71.9242 81.8206 67.2916 81.2756C63.204 80.935 59.0482 80.5262 55.3012 78.9593C54.7562 78.7549 54.2793 81.0031 55.0968 82.2294Z" fill="#231F20"/>
<path d="M79.8267 94.9692C73.4908 94.9692 66.61 91.6991 62.7949 89.5871C58.9798 87.4752 56.3228 85.1589 54.6878 82.5019C53.9384 81.3437 54.0746 79.5043 54.6196 78.823C54.824 78.5505 55.2328 78.4824 55.5053 78.6187C59.2523 80.1856 63.5443 80.5944 67.3594 80.8669C71.9239 81.4119 76.5566 81.3437 81.1211 80.7987C81.2573 80.7987 81.3936 80.7987 81.4617 80.8669C81.598 80.935 81.598 81.0712 81.6661 81.2075L82.688 94.2879C82.688 94.5604 82.5517 94.7648 82.2792 94.7648C81.5298 94.901 80.7123 94.9692 79.8267 94.9692ZM55.3009 79.5043C55.0284 80.3218 55.0965 81.2075 55.5053 82.025C57.0722 84.5457 59.6611 86.7939 63.2718 88.7696C67.4275 91.0859 75.194 94.6967 81.7342 93.8791L80.7804 81.7525C76.284 82.2294 71.7877 82.2294 67.2913 81.7525C63.4762 81.48 59.1842 81.0712 55.3009 79.5043Z" fill="#231F20"/>
<path d="M68.8586 66.0833C67.973 66.0833 67.0873 66.0151 66.2017 65.947C65.8611 65.8789 65.5204 65.6745 65.316 65.3339C63.9535 63.0857 67.5642 53.4116 68.3136 51.436C68.3818 51.1634 68.7224 51.0272 68.9268 51.1634C69.1993 51.2316 69.3355 51.5722 69.1993 51.7766C67.5642 56.0686 65.316 63.3582 66.1336 64.7889C66.1336 64.857 66.2017 64.9251 66.2698 64.9251C68.0411 65.1295 69.7443 65.1295 71.5156 64.9251C71.7881 64.857 71.9925 65.0614 72.0606 65.3339C72.1287 65.6064 71.9244 65.8789 71.6519 65.8789C70.7662 66.0151 69.8124 66.0833 68.8586 66.0833Z" fill="#231F20"/>
<path d="M88.1382 44.6232V65.8789C88.1382 76.098 79.8948 84.3413 69.6757 84.3413H67.4956C57.2766 84.3413 49.0332 76.098 49.0332 65.8789V45.7133L60.6148 44.7595L61.9773 35.5623L64.9068 45.9858L73.1502 44.8958C73.9677 41.2169 73.1502 33.246 73.0139 32.9054L78.941 44.0782L88.1382 44.6232Z" fill="white"/>
<path d="M69.676 84.8182H67.496C57.0044 84.8182 48.5566 76.3705 48.5566 65.8789V45.7133C48.5566 45.4408 48.761 45.2364 49.0335 45.2364L60.2745 44.2826L61.5689 35.4261C61.5689 35.2217 61.7733 35.0173 62.0458 35.0173C62.2502 35.0173 62.5227 35.1536 62.5227 35.358L65.3159 45.3726L72.8099 44.4189C73.4912 40.74 72.6736 33.3823 72.6055 32.9735C72.5374 32.701 72.6736 32.4966 72.9461 32.4285C73.1505 32.3604 73.423 32.4285 73.5593 32.6329L79.3501 43.5332L88.2066 44.1464C88.4791 44.1464 88.6835 44.3507 88.6835 44.6233V65.8789C88.6154 76.3023 80.1676 84.8182 69.676 84.8182ZM49.5104 46.1902V65.8789C49.5104 75.8254 57.5494 83.7963 67.496 83.8644H69.676C79.5545 83.8644 87.5934 75.8254 87.6616 65.8789V45.1001L79.0094 44.487C78.805 44.487 78.6688 44.3507 78.6007 44.2145L73.8318 35.2898C74.0362 38.0831 74.2405 42.4432 73.6955 44.9639C73.6274 45.1683 73.4911 45.3045 73.2868 45.3726L65.0434 46.4627C64.7709 46.5308 64.5665 46.3264 64.4984 46.122L62.1821 37.9468L61.1601 44.8276C61.1601 45.032 60.9558 45.2364 60.6833 45.2364L49.5104 46.1902Z" fill="#231F20"/>
<path d="M68.5858 136.39C30.9116 136.39 0.390625 105.869 0.390625 68.1952C0.390625 30.5209 30.9116 0 68.5858 0C106.26 0 136.781 30.5209 136.781 68.1952C136.781 83.66 131.535 98.5799 121.929 110.706C108.985 126.989 89.3646 136.459 68.5858 136.39ZM68.5858 0.885649C31.4566 0.953776 1.34442 31.0659 1.27629 68.1952C1.27629 105.393 31.3884 135.505 68.5858 135.505C105.783 135.505 135.895 105.393 135.895 68.1952C135.827 31.0659 105.715 0.953776 68.5858 0.885649Z" fill="#231F20"/>
<path d="M100.742 128.215C100.401 128.215 100.197 127.943 100.265 127.67L102.581 110.025C102.649 109.753 102.854 109.548 103.126 109.616C103.399 109.685 103.603 109.889 103.535 110.161L101.219 127.806C101.151 128.011 100.946 128.215 100.742 128.215Z" fill="#231F20"/>
<path d="M36.4299 128.215C36.1574 128.215 35.953 128.011 35.953 127.806L33.6367 110.161C33.6367 109.889 33.8411 109.685 34.1136 109.616C34.3861 109.616 34.5905 109.753 34.5905 110.025L36.9068 127.67C36.9749 127.943 36.7706 128.215 36.498 128.215H36.4299Z" fill="#231F20"/>
</svg>
