<svg width="137" height="137" viewBox="0 0 137 137" fill="none" xmlns="http://www.w3.org/2000/svg">
<path d="M121.198 110.434C109.957 124.536 93.6064 133.597 75.689 135.573C70.7157 136.118 65.7424 136.118 60.7691 135.573C42.8517 133.597 26.4331 124.536 15.2603 110.434C23.4355 104.779 34.0633 98.7843 46.1218 95.2417C53.2752 93.0616 60.701 91.9034 68.195 91.9034C75.689 91.9716 83.1829 93.0616 90.3363 95.2417C102.395 98.8524 113.023 104.779 121.198 110.434Z" fill="#019973"/>
<path d="M82.2975 99.9424L75.6892 135.573C75.1442 135.641 74.5991 135.709 74.0541 135.709C72.1466 135.845 70.239 135.982 68.2633 135.982C66.0833 135.982 63.9032 135.913 61.7231 135.641L60.8375 135.573L53.4116 99.9424C60.2925 97.8986 75.3485 97.8986 82.2975 99.9424Z" fill="#231F20"/>
<path d="M68.1953 79.5724C82.7563 79.5724 94.5604 66.0297 94.5604 49.324C94.5604 32.6182 82.7563 19.0756 68.1953 19.0756C53.6342 19.0756 41.8301 32.6182 41.8301 49.324C41.8301 66.0297 53.6342 79.5724 68.1953 79.5724Z" fill="white"/>
<path d="M68.1951 80.0493C53.3434 80.0493 41.353 66.2876 41.353 49.324C41.353 31.3385 43.2606 18.5987 68.1951 18.5987C93.1296 18.5987 95.0372 31.3385 95.0372 49.324C95.0372 66.2876 83.0468 80.0493 68.1951 80.0493ZM68.1951 19.5525C44.1462 19.5525 42.3068 31.3385 42.3068 49.324C42.3068 65.7426 53.8884 79.0955 68.1951 79.0955C82.5018 79.0955 94.0834 65.7426 94.0834 49.324C94.0834 31.3385 92.3121 19.6206 68.1951 19.5525Z" fill="#231F20"/>
<path d="M84.8184 59.7475C86.1128 51.7085 99.4657 49.7328 98.7844 59.2024C98.58 62.4725 97.49 65.8108 95.2418 68.1271C92.9936 70.4434 89.2466 71.5334 86.249 70.239" fill="white"/>
<path d="M89.1102 71.2609C88.0883 71.2609 87.0664 71.0565 86.1126 70.6477C85.8401 70.5115 85.772 70.239 85.8401 69.9665C85.9082 69.694 86.2489 69.6258 86.5214 69.694C89.1783 70.8521 92.5847 70.0346 94.9691 67.7183C97.4898 65.1294 98.2392 61.655 98.3755 59.1343C98.5799 55.8642 97.0129 53.6841 94.0835 53.3435C90.5409 52.9347 86.0445 55.4554 85.3632 59.7474C85.2951 60.0199 85.0226 60.1562 84.7501 60.088C84.4776 60.0199 84.3413 59.8155 84.3413 59.543C85.0907 54.706 90.1321 51.8447 94.1516 52.3216C96.8767 52.5941 99.6018 54.5698 99.3293 59.1343C99.1249 61.7912 98.3755 65.6063 95.6504 68.3314C93.8791 70.1709 91.5628 71.1928 89.1102 71.2609Z" fill="#231F20"/>
<path d="M51.5723 59.7475C50.2779 51.7085 36.925 49.7328 37.6062 59.2024C37.8106 62.4725 38.9007 65.8108 41.1489 68.1271C43.397 70.4434 47.144 71.5334 50.1416 70.239" fill="white"/>
<path d="M47.2801 71.2609C44.8275 71.1928 42.4431 70.239 40.7399 68.4677C38.0148 65.6745 37.1973 61.9275 37.061 59.2706C36.7204 54.706 39.5136 52.7304 42.2387 52.4579C46.2582 51.981 51.2996 54.8423 52.049 59.6793C52.1171 59.9518 51.9127 60.2243 51.6402 60.2243C51.3677 60.2925 51.0952 60.0881 51.0952 59.8156C50.4139 55.5236 45.9175 53.0029 42.3749 53.4116C39.4455 53.7523 37.8785 55.9323 38.0829 59.2024C38.2192 61.7231 38.9686 65.2657 41.4893 67.7864C43.8056 70.1709 47.2801 70.9884 49.8689 69.7621C50.1414 69.6259 50.4139 69.7621 50.4821 69.9665C50.6183 70.239 50.4821 70.5115 50.2095 70.5796C49.3239 71.0565 48.302 71.2609 47.2801 71.2609Z" fill="#231F20"/>
<path d="M53.3433 99.9424C53.3433 99.9424 56.954 107.845 67.5137 107.845C78.0734 107.845 82.3654 99.9424 82.3654 99.9424L80.9347 69.0127H54.7739L53.3433 99.9424Z" fill="white"/>
<path d="M67.5138 108.322C56.7497 108.322 52.9346 100.215 52.8665 100.147C52.8665 100.079 52.7983 100.011 52.7983 99.9424L54.229 69.0127C54.229 68.7402 54.4334 68.5358 54.7059 68.5358H80.8667C81.1392 68.5358 81.3436 68.7402 81.3436 69.0127L82.7742 99.9424C82.7742 100.011 82.7743 100.147 82.7061 100.215C79.436 105.324 73.6452 108.458 67.5138 108.322ZM53.8202 99.8743C54.2971 100.828 57.9079 107.368 67.5138 107.368C73.2365 107.505 78.6866 104.643 81.8205 99.8743L80.4579 69.5577H55.2509L53.8202 99.8743Z" fill="#231F20"/>
<path d="M54.7058 82.2294C56.5453 85.1588 59.5428 87.4751 62.6086 89.1783C67.7862 92.0397 75.5527 95.2416 81.8204 94.2879L80.7985 81.2075C76.1659 81.7525 71.5332 81.8206 66.9006 81.2756C62.8129 80.935 58.6572 80.5262 54.9102 78.9593C54.3652 78.7549 53.9564 81.0031 54.7058 82.2294Z" fill="#231F20"/>
<path d="M79.5044 94.9692C73.1686 94.9692 66.2877 91.6991 62.4726 89.5871C58.7256 87.5433 56.0687 85.1589 54.3655 82.5019C53.6161 81.3437 53.7524 79.5043 54.2974 78.823C54.5018 78.5505 54.9105 78.4824 55.183 78.6187C58.93 80.1856 63.222 80.5944 67.0371 80.8669C71.6017 81.4119 76.2343 81.3437 80.7988 80.7987C80.9351 80.7987 81.0713 80.7987 81.1394 80.8669C81.2076 80.935 81.2757 81.0712 81.3438 81.2075L82.3657 94.2879C82.3657 94.5604 82.2295 94.7648 81.957 94.7648C81.1394 94.901 80.3219 94.9692 79.5044 94.9692ZM54.9787 79.5043C54.7061 80.3218 54.7743 81.2075 55.183 82.025C56.75 84.5457 59.3388 86.7939 62.9495 88.7696C67.0371 91.0859 74.8718 94.6967 81.412 93.8791L80.4582 81.7525C75.9618 82.2294 71.4654 82.2294 66.969 81.7525C63.0858 81.48 58.7938 81.0712 54.9787 79.5043Z" fill="#231F20"/>
<path d="M67.105 84.3413H69.2851C79.5041 84.3413 87.7475 76.0979 87.7475 65.8789V36.6523C87.7475 36.6523 81.3436 38.4918 68.195 38.4918C55.0465 38.4918 48.6426 36.6523 48.6426 36.6523V65.8789C48.6426 76.0298 56.9541 84.3413 67.105 84.3413Z" fill="white"/>
<path d="M87.7474 36.6524V65.8789C87.7474 76.098 79.5041 84.3413 69.285 84.3413H67.1049C56.8859 84.3413 48.6425 76.098 48.6425 65.8789V36.6524C48.6425 36.6524 55.0465 38.4918 68.195 38.4918C81.3435 38.4918 87.7474 36.6524 87.7474 36.6524ZM48.6425 35.6986C48.4381 35.6986 48.2337 35.7667 48.0294 35.903C47.7569 36.1074 47.6206 36.3799 47.6206 36.7205V65.947C47.6206 76.643 56.3409 85.3632 67.0368 85.3632H69.2169C79.981 85.3632 88.6331 76.643 88.6331 65.947V36.7205C88.6331 36.1755 88.2243 35.7667 87.6793 35.7667C87.6112 35.7667 87.4749 35.7667 87.4068 35.8349C87.3387 35.8349 80.9347 37.6062 68.1268 37.6062C55.319 37.6062 48.915 35.8349 48.8469 35.8349C48.8469 35.6986 48.7788 35.6305 48.6425 35.6986Z" fill="#231F20"/>
<path d="M68.468 66.0833C67.5824 66.0833 66.6967 66.0151 65.8111 65.947C65.4704 65.8789 65.1298 65.6745 64.9254 65.3339C63.5629 63.0857 67.1736 53.4116 67.923 51.436C67.9911 51.1634 68.3318 51.0272 68.5362 51.1634C68.8087 51.2316 68.9449 51.5041 68.8087 51.7766C67.1736 56.0686 64.9254 63.3582 65.7429 64.7889C65.8111 64.857 65.8792 64.9251 65.8792 64.9251C67.6505 65.1295 69.3537 65.1295 71.125 64.9251C71.3975 64.9251 71.67 65.0614 71.67 65.3339C71.67 65.6064 71.5337 65.8789 71.2612 65.8789C70.3756 66.0151 69.4218 66.0833 68.468 66.0833Z" fill="#231F20"/>
<path d="M68.1952 136.39C30.5209 136.39 0 105.869 0 68.1952C0 30.5209 30.5209 0 68.1952 0C105.869 0 136.39 30.5209 136.39 68.1952C136.39 68.1952 136.39 68.1952 136.39 68.2633C136.322 105.869 105.801 136.39 68.1952 136.39ZM68.1952 0.885649C30.9978 0.953776 0.885651 31.0659 0.885651 68.2633C0.885651 105.461 30.9978 135.573 68.1952 135.573C105.393 135.573 135.505 105.461 135.505 68.2633C135.505 31.0659 105.393 0.953776 68.1952 0.885649Z" fill="#231F20"/>
<path d="M67.8546 116.02L62.8813 112.137L67.8546 108.322L72.8279 112.137L67.8546 116.02Z" fill="white"/>
<path d="M73.9858 135.709C72.0782 135.845 70.1707 135.982 68.195 135.982C66.0149 135.982 63.8349 135.914 61.6548 135.641L66.1512 114.658L66.2193 114.385H69.4894L69.5575 114.658L73.9858 135.709Z" fill="white"/>
<path d="M100.351 128.215H100.283C100.01 128.147 99.8059 127.943 99.874 127.67L102.19 110.025C102.258 109.753 102.463 109.548 102.735 109.616C103.008 109.685 103.212 109.889 103.144 110.161L100.828 127.806C100.76 128.011 100.555 128.215 100.351 128.215Z" fill="#231F20"/>
<path d="M36.0393 128.215C35.7668 128.215 35.5624 128.011 35.5624 127.806L33.2461 110.23C33.178 109.957 33.3824 109.685 33.6549 109.685C33.9274 109.616 34.1999 109.821 34.1999 110.093L36.5162 127.738C36.5162 128.011 36.38 128.215 36.1075 128.283H36.0393V128.215Z" fill="#231F20"/>
</svg>
